{
  "accessors": [
    {
      "bufferView": 2,
      "componentType": 5126,
      "count": 781,
      "max": [
        0.8351892828941345,
        2.323552370071411,
        1.2483153343200684
      ],
      "min": [
        -0.835189163684845,
        -1.9115978479385376,
        -1.5432277917861938
      ],
      "type": "VEC3"
    },
    {
      "bufferView": 2,
      "byteOffset": 9372,
      "componentType": 5126,
      "count": 781,
      "max": [
        1.0,
        0.9828341603279114,
        0.9997260570526123
      ],
      "min": [
        -1.0,
        -0.989929735660553,
        -1.0
      ],
      "type": "VEC3"
    },
    {
      "bufferView": 1,
      "componentType": 5126,
      "count": 781,
      "max": [
        0.9960314631462097,
        0.9204235076904297
      ],
      "min": [
        0.003968480974435806,
        0.003968479111790657
      ],
      "type": "VEC2"
    },
    {
      "bufferView": 0,
      "componentType": 5125,
      "count": 2904,
      "type": "SCALAR"
    },
    {
      "bufferView": 2,
      "byteOffset": 18744,
      "componentType": 5126,
      "count": 362,
      "max": [
        0.43568527698516846,
        1.7516002655029297,
        0.9223896265029907
      ],
      "min": [
        -0.43568533658981323,
        1.6117397546768188,
        0.7825290560722351
      ],
      "type": "VEC3"
    },
    {
      "bufferView": 2,
      "byteOffset": 23088,
      "componentType": 5126,
      "count": 362,
      "max": [
        1.0,
        0.9816657900810242,
        0.9816659688949585
      ],
      "min": [
        -1.0,
        -0.9816660284996033,
        -0.9816659688949585
      ],
      "type": "VEC3"
    },
    {
      "bufferView": 1,
      "byteOffset": 6248,
      "componentType": 5126,
      "count": 362,
      "max": [
        0.8046155571937561,
        0.8342766165733337
      ],
      "min": [
        0.19330325722694397,
        0.776907742023468
      ],
      "type": "VEC2"
    },
    {
      "bufferView": 0,
      "byteOffset": 11616,
      "componentType": 5125,
      "count": 1536,
      "type": "SCALAR"
    },
    {
      "bufferView": 3,
      "componentType": 5126,
      "count": 1,
      "max": [
        0.0
      ],
      "min": [
        0.0
      ],
      "type": "SCALAR"
    },
    {
      "bufferView": 4,
      "componentType": 5126,
      "count": 1,
      "max": [
        0.0,
        316.3934631347656,
        0.0
      ],
      "min": [
        0.0,
        316.3934631347656,
        0.0
      ],
      "type": "VEC3"
    }
  ],
  "animations": [
    {
      "channels": [
        {
          "sampler": 0,
          "target": {
            "node": 4,
            "path": "translation"
          }
        }
      ],
      "name": "Cube|TextureFieldAction",
      "samplers": [
        {
          "input": 8,
          "interpolation": "LINEAR",
          "output": 9
        }
      ]
    }
  ],
  "asset": {
    "extras": {
      "author": "anak3d (https://sketchfab.com/anak3d1234)",
      "license": "CC-BY-4.0 (http://creativecommons.org/licenses/by/4.0/)",
      "source": "https://sketchfab.com/3d-models/low-poly-capybara-292e882fe4b84384bae7a0b19b397e7a",
      "title": "Low Poly Capybara"
    },
    "generator": "Sketchfab-16.30.0",
    "version": "2.0"
  },
  "bufferViews": [
    {
      "buffer": 0,
      "byteLength": 17760,
      "name": "floatBufferViews",
      "target": 34963
    },
    {
      "buffer": 0,
      "byteLength": 9144,
      "byteOffset": 17760,
      "byteStride": 8,
      "name": "floatBufferViews",
      "target": 34962
    },
    {
      "buffer": 0,
      "byteLength": 27432,
      "byteOffset": 26904,
      "byteStride": 12,
      "name": "floatBufferViews",
      "target": 34962
    },
    {
      "buffer": 0,
      "byteLength": 4,
      "byteOffset": 54336,
      "name": "floatBufferViews"
    },
    {
      "buffer": 0,
      "byteLength": 12,
      "byteOffset": 54340,
      "byteStride": 12,
      "name": "floatBufferViews"
    }
  ],
  "buffers": [
    {
      "byteLength": 54352,
      "uri": "scene.bin"
    }
  ],
  "images": [
    {
      "uri": "textures/Material.001_baseColor.png"
    }
  ],
  "materials": [
    {
      "doubleSided": true,
      "name": "Material.001",
      "pbrMetallicRoughness": {
        "baseColorTexture": {
          "index": 0
        },
        "metallicFactor": 0.0,
        "roughnessFactor": 0.8040408205773457
      }
    },
    {
      "doubleSided": true,
      "name": "Material.002",
      "pbrMetallicRoughness": {
        "baseColorFactor": [
          0.0,
          0.0,
          0.0,
          1.0
        ],
        "metallicFactor": 0.0
      }
    }
  ],
  "meshes": [
    {
      "name": "Cube_Material.001_0",
      "primitives": [
        {
          "attributes": {
            "NORMAL": 1,
            "POSITION": 0,
            "TEXCOORD_0": 2
          },
          "indices": 3,
          "material": 0,
          "mode": 4
        }
      ]
    },
    {
      "name": "Cube_Material.002_0",
      "primitives": [
        {
          "attributes": {
            "NORMAL": 5,
            "POSITION": 4,
            "TEXCOORD_0": 6
          },
          "indices": 7,
          "material": 1,
          "mode": 4
        }
      ]
    }
  ],
  "nodes": [
    {
      "children": [
        1
      ],
      "matrix": [
        1.0,
        0.0,
        0.0,
        0.0,
        0.0,
        2.220446049250313e-16,
        -1.0,
        0.0,
        0.0,
        1.0,
        2.220446049250313e-16,
        0.0,
        0.0,
        0.0,
        0.0,
        1.0
      ],
      "name": "Sketchfab_model"
    },
    {
      "children": [
        2
      ],
      "matrix": [
        0.009999999776482582,
        0.0,
        0.0,
        0.0,
        0.0,
        0.0,
        0.009999999776482582,
        0.0,
        0.0,
        -0.009999999776482582,
        0.0,
        0.0,
        0.0,
        0.0,
        0.0,
        1.0
      ],
      "name": "capibara.fbx"
    },
    {
      "children": [
        3
      ],
      "name": "Object_2"
    },
    {
      "children": [
        4
      ],
      "name": "RootNode"
    },
    {
      "children": [
        5,
        6
      ],
      "name": "Cube",
      "rotation": [
        -0.7071068286895752,
        0.0,
        0.0,
        0.7071067094802856
      ],
      "scale": [
        100.0,
        100.0,
        100.0
      ],
      "translation": [
        0.0,
        177.34915161132813,
        0.0
      ]
    },
    {
      "mesh": 0,
      "name": "Cube_Material.001_0"
    },
    {
      "mesh": 1,
      "name": "Cube_Material.002_0"
    }
  ],
  "samplers": [
    {
      "magFilter": 9729,
      "minFilter": 9987,
      "wrapS": 10497,
      "wrapT": 10497
    }
  ],
  "scene": 0,
  "scenes": [
    {
      "name": "Sketchfab_Scene",
      "nodes": [
        0
      ]
    }
  ],
  "textures": [
    {
      "sampler": 0,
      "source": 0
    }
  ]
}
