{
	"asset":{
		"generator":"Khronos glTF Blender I/O v4.2.70",
		"version":"2.0"
	},
	"extensionsUsed":[
		"KHR_materials_specular"
	],
	"scene":0,
	"scenes":[
		{
			"name":"Scene",
			"nodes":[
				0
			]
		}
	],
	"nodes":[
		{
			"mesh":0,
			"name":"Salmon_white_shoe",
			"rotation":[
				-0.8738012909889221,
				0.011806914582848549,
				0.48567548394203186,
				0.02124236524105072
			],
			"scale":[
				-0.024934276938438416,
				-0.024934276938438416,
				-0.024934276938438416
			],
			"translation":[
				0,
				-0.3257928788661957,
				0
			]
		}
	],
	"materials":[
		{
			"doubleSided":true,
			"extensions":{
				"KHR_materials_specular":{
					"specularFactor":0
				}
			},
			"name":"Salmon_white_shoe_tex0",
			"pbrMetallicRoughness":{
				"baseColorTexture":{
					"index":0
				},
				"metallicFactor":0
			}
		},
		{
			"doubleSided":true,
			"extensions":{
				"KHR_materials_specular":{
					"specularFactor":0
				}
			},
			"name":"Salmon_white_shoe_tex1",
			"pbrMetallicRoughness":{
				"baseColorTexture":{
					"index":1
				},
				"metallicFactor":0
			}
		}
	],
	"meshes":[
		{
			"name":"Salmon_white_shoe",
			"primitives":[
				{
					"attributes":{
						"POSITION":0,
						"NORMAL":1,
						"TEXCOORD_0":2
					},
					"indices":3,
					"material":0
				},
				{
					"attributes":{
						"POSITION":4,
						"NORMAL":5,
						"TEXCOORD_0":6
					},
					"indices":7,
					"material":1
				}
			]
		}
	],
	"textures":[
		{
			"sampler":0,
			"source":0
		},
		{
			"sampler":0,
			"source":1
		}
	],
	"images":[
		{
			"mimeType":"image/jpeg",
			"name":"Salmon_white_shoe_tex0",
			"uri":"Salmon_white_shoe_tex0.jpg"
		},
		{
			"mimeType":"image/jpeg",
			"name":"Salmon_white_shoe_tex1",
			"uri":"Salmon_white_shoe_tex1.jpg"
		}
	],
	"accessors":[
		{
			"bufferView":0,
			"componentType":5126,
			"count":350126,
			"max":[
				11.562010765075684,
				25.65679931640625,
				9.283896446228027
			],
			"min":[
				-16.460264205932617,
				11.494860649108887,
				-33.82743835449219
			],
			"type":"VEC3"
		},
		{
			"bufferView":1,
			"componentType":5126,
			"count":350126,
			"type":"VEC3"
		},
		{
			"bufferView":2,
			"componentType":5126,
			"count":350126,
			"type":"VEC2"
		},
		{
			"bufferView":3,
			"componentType":5125,
			"count":679434,
			"type":"SCALAR"
		},
		{
			"bufferView":4,
			"componentType":5126,
			"count":323904,
			"max":[
				11.562010765075684,
				25.65957260131836,
				9.283896446228027
			],
			"min":[
				-16.474668502807617,
				11.494860649108887,
				-33.791866302490234
			],
			"type":"VEC3"
		},
		{
			"bufferView":5,
			"componentType":5126,
			"count":323904,
			"type":"VEC3"
		},
		{
			"bufferView":6,
			"componentType":5126,
			"count":323904,
			"type":"VEC2"
		},
		{
			"bufferView":7,
			"componentType":5125,
			"count":594273,
			"type":"SCALAR"
		}
	],
	"bufferViews":[
		{
			"buffer":0,
			"byteLength":4201512,
			"byteOffset":0,
			"target":34962
		},
		{
			"buffer":0,
			"byteLength":4201512,
			"byteOffset":4201512,
			"target":34962
		},
		{
			"buffer":0,
			"byteLength":2801008,
			"byteOffset":8403024,
			"target":34962
		},
		{
			"buffer":0,
			"byteLength":2717736,
			"byteOffset":11204032,
			"target":34963
		},
		{
			"buffer":0,
			"byteLength":3886848,
			"byteOffset":13921768,
			"target":34962
		},
		{
			"buffer":0,
			"byteLength":3886848,
			"byteOffset":17808616,
			"target":34962
		},
		{
			"buffer":0,
			"byteLength":2591232,
			"byteOffset":21695464,
			"target":34962
		},
		{
			"buffer":0,
			"byteLength":2377092,
			"byteOffset":24286696,
			"target":34963
		}
	],
	"samplers":[
		{
			"magFilter":9729,
			"minFilter":9987
		}
	],
	"buffers":[
		{
			"byteLength":26663788,
			"uri":"kenk%C3%A4.bin"
		}
	]
}
