{
	"asset":{
		"generator":"Khronos glTF Blender I/O v4.2.70",
		"version":"2.0"
	},
	"scene":0,
	"scenes":[
		{
			"name":"Scene",
			"nodes":[
				0
			]
		}
	],
	"nodes":[
		{
			"mesh":0,
			"name":"Cylinder"
		}
	],
	"materials":[
		{
			"doubleSided":true,
			"name":"weathered_planks",
			"normalTexture":{
				"index":0
			},
			"pbrMetallicRoughness":{
				"baseColorTexture":{
					"index":1
				},
				"metallicFactor":0,
				"metallicRoughnessTexture":{
					"index":2
				}
			}
		},
		{
			"doubleSided":true,
			"name":"rings",
			"pbrMetallicRoughness":{
				"baseColorFactor":[
					0,
					0,
					0,
					1
				],
				"metallicFactor":0,
				"roughnessFactor":0.5
			}
		},
		{
			"doubleSided":true,
			"name":"sparse_grass",
			"normalTexture":{
				"index":3
			},
			"pbrMetallicRoughness":{
				"baseColorTexture":{
					"index":4
				},
				"metallicFactor":0,
				"metallicRoughnessTexture":{
					"index":5
				}
			}
		}
	],
	"meshes":[
		{
			"name":"Cylinder.001",
			"primitives":[
				{
					"attributes":{
						"POSITION":0,
						"NORMAL":1,
						"TEXCOORD_0":2
					},
					"indices":3,
					"material":0
				},
				{
					"attributes":{
						"POSITION":4,
						"NORMAL":5,
						"TEXCOORD_0":6
					},
					"indices":7,
					"material":1
				},
				{
					"attributes":{
						"POSITION":8,
						"NORMAL":9,
						"TEXCOORD_0":10
					},
					"indices":11,
					"material":2
				}
			]
		}
	],
	"textures":[
		{
			"sampler":0,
			"source":0
		},
		{
			"sampler":0,
			"source":1
		},
		{
			"sampler":0,
			"source":2
		},
		{
			"sampler":0,
			"source":3
		},
		{
			"sampler":0,
			"source":4
		},
		{
			"sampler":0,
			"source":5
		}
	],
	"images":[
		{
			"mimeType":"image/png",
			"name":"weathered_planks_nor_gl_8k",
			"uri":"weathered_planks_nor_gl_8k.png"
		},
		{
			"mimeType":"image/jpeg",
			"name":"weathered_planks_diff_8k",
			"uri":"weathered_planks_diff_8k.jpg"
		},
		{
			"mimeType":"image/png",
			"name":"weathered_planks_rough_8k",
			"uri":"weathered_planks_rough_8k.png"
		},
		{
			"mimeType":"image/png",
			"name":"sparse_grass_nor_gl",
			"uri":"sparse_grass_nor_gl.png"
		},
		{
			"mimeType":"image/jpeg",
			"name":"sparse_grass_diff",
			"uri":"sparse_grass_diff.jpg"
		},
		{
			"mimeType":"image/png",
			"name":"sparse_grass_rough",
			"uri":"sparse_grass_rough.png"
		}
	],
	"accessors":[
		{
			"bufferView":0,
			"componentType":5126,
			"count":488,
			"max":[
				0.6683254837989807,
				0.6000000238418579,
				0.6573218703269958
			],
			"min":[
				-0.6683254837989807,
				-0.6000000238418579,
				-0.6720068454742432
			],
			"type":"VEC3"
		},
		{
			"bufferView":1,
			"componentType":5126,
			"count":488,
			"type":"VEC3"
		},
		{
			"bufferView":2,
			"componentType":5126,
			"count":488,
			"type":"VEC2"
		},
		{
			"bufferView":3,
			"componentType":5123,
			"count":780,
			"type":"SCALAR"
		},
		{
			"bufferView":4,
			"componentType":5126,
			"count":278,
			"max":[
				0.674178957939148,
				0.4157859683036804,
				0.6630789637565613
			],
			"min":[
				-0.674178957939148,
				-0.42056551575660706,
				-0.6778925657272339
			],
			"type":"VEC3"
		},
		{
			"bufferView":5,
			"componentType":5126,
			"count":278,
			"type":"VEC3"
		},
		{
			"bufferView":6,
			"componentType":5126,
			"count":278,
			"type":"VEC2"
		},
		{
			"bufferView":7,
			"componentType":5123,
			"count":540,
			"type":"SCALAR"
		},
		{
			"bufferView":8,
			"componentType":5126,
			"count":30,
			"max":[
				0.43705061078071594,
				0.5309242606163025,
				0.4298548102378845
			],
			"min":[
				-0.43705061078071594,
				-0.5235325694084167,
				-0.4394580125808716
			],
			"type":"VEC3"
		},
		{
			"bufferView":9,
			"componentType":5126,
			"count":30,
			"type":"VEC3"
		},
		{
			"bufferView":10,
			"componentType":5126,
			"count":30,
			"type":"VEC2"
		},
		{
			"bufferView":11,
			"componentType":5123,
			"count":78,
			"type":"SCALAR"
		}
	],
	"bufferViews":[
		{
			"buffer":0,
			"byteLength":5856,
			"byteOffset":0,
			"target":34962
		},
		{
			"buffer":0,
			"byteLength":5856,
			"byteOffset":5856,
			"target":34962
		},
		{
			"buffer":0,
			"byteLength":3904,
			"byteOffset":11712,
			"target":34962
		},
		{
			"buffer":0,
			"byteLength":1560,
			"byteOffset":15616,
			"target":34963
		},
		{
			"buffer":0,
			"byteLength":3336,
			"byteOffset":17176,
			"target":34962
		},
		{
			"buffer":0,
			"byteLength":3336,
			"byteOffset":20512,
			"target":34962
		},
		{
			"buffer":0,
			"byteLength":2224,
			"byteOffset":23848,
			"target":34962
		},
		{
			"buffer":0,
			"byteLength":1080,
			"byteOffset":26072,
			"target":34963
		},
		{
			"buffer":0,
			"byteLength":360,
			"byteOffset":27152,
			"target":34962
		},
		{
			"buffer":0,
			"byteLength":360,
			"byteOffset":27512,
			"target":34962
		},
		{
			"buffer":0,
			"byteLength":240,
			"byteOffset":27872,
			"target":34962
		},
		{
			"buffer":0,
			"byteLength":156,
			"byteOffset":28112,
			"target":34963
		}
	],
	"samplers":[
		{
			"magFilter":9729,
			"minFilter":9987
		}
	],
	"buffers":[
		{
			"byteLength":28268,
			"uri":"barrel.bin"
		}
	]
}
